<?xml version="1.0" standalone="no"?>
<!DOCTYPE svg PUBLIC "-//W3C//DTD SVG 20010904//EN"
 "http://www.w3.org/TR/2001/REC-SVG-20010904/DTD/svg10.dtd">
<svg version="1.0" xmlns="http://www.w3.org/2000/svg"
 width="700.000000pt" height="700.000000pt" viewBox="0 0 700.000000 700.000000"
 preserveAspectRatio="xMidYMid meet">
<metadata>
Created by potrace 1.14, written by Peter Selinger 2001-2017
</metadata>
<g transform="translate(0.000000,700.000000) scale(0.100000,-0.100000)"
fill="#000000" stroke="none">
<path d="M0 3500 l0 -3500 3500 0 3500 0 0 3500 0 3500 -3500 0 -3500 0 0
-3500z m6149 2586 l143 -144 -119 -163 c-66 -90 -145 -202 -176 -249 -86 -132
-156 -197 -297 -275 -47 -25 -101 -58 -120 -73 -32 -24 -1010 -969 -1070
-1034 l-25 -27 -155 149 -154 149 525 523 c289 288 548 554 576 591 27 38 71
111 98 163 26 52 64 112 84 134 30 34 525 399 541 400 3 0 70 -65 149 -144z
m-3950 34 c285 -30 542 -151 741 -350 182 -182 303 -423 340 -679 18 -121 8
-345 -20 -448 -22 -81 -22 -83 -4 -112 11 -16 629 -607 1374 -1313 869 -824
1367 -1302 1387 -1334 79 -123 113 -235 113 -374 0 -180 -56 -317 -179 -440
-125 -125 -290 -193 -466 -193 -131 0 -244 37 -356 119 -25 18 -192 185 -370
371 -540 561 -2141 2245 -2192 2306 -27 32 -62 64 -77 72 -41 21 -101 19 -173
-7 -55 -20 -82 -22 -242 -23 -206 0 -275 12 -442 76 -403 157 -688 511 -758
941 -15 96 -20 351 -7 423 6 34 11 40 35 43 24 3 71 -41 425 -399 234 -237
410 -408 429 -416 41 -17 105 -17 146 0 46 20 684 670 708 722 10 22 19 51 19
65 0 74 -10 86 -396 470 -206 206 -389 392 -405 412 l-29 36 56 12 c56 12 165
26 215 29 15 0 73 -4 128 -9z m170 -3047 c58 -54 108 -99 111 -100 2 -2 -291
-299 -652 -661 -361 -361 -663 -671 -672 -689 -39 -78 6 -152 92 -153 l44 0
386 379 c213 209 421 414 462 456 41 42 173 171 293 288 l218 211 111 -111
111 -111 -404 -398 c-222 -219 -522 -515 -666 -659 l-263 -260 0 -51 c0 -42 5
-56 26 -77 35 -35 82 -43 125 -22 19 10 325 308 682 663 l647 646 28 -29 c16
-17 65 -69 110 -116 l82 -85 -352 -350 c-194 -192 -514 -509 -710 -704 -197
-195 -380 -369 -408 -386 -153 -97 -363 -104 -532 -18 -114 58 -406 340 -457
441 -80 160 -80 335 0 496 27 54 118 149 747 780 394 394 721 717 726 717 5 0
56 -44 115 -97z"/>
<path d="M5360 1801 c-222 -47 -310 -313 -161 -484 70 -79 198 -114 306 -82
83 24 166 107 190 190 41 140 -22 289 -148 349 -57 28 -133 39 -187 27z"/>
</g>
</svg>
